<svg width="23" height="23" viewBox="0 0 23 23" fill="none" stroke="currentColor" xmlns="http://www.w3.org/2000/svg">
<path d="M11.5117 9.5V1.5M11.5117 1.5L14.5117 4.5M11.5117 1.5L8.51172 4.5" stroke="" stroke-width="1.5" stroke-linecap="round" stroke-linejoin="round"/>
<path d="M1.51172 12.5H4.67172C5.57672 12.5 6.02972 12.5 6.42772 12.683C6.82572 12.866 7.11972 13.21 7.70872 13.897L8.31472 14.603C8.90372 15.29 9.19772 15.634 9.59572 15.817C9.99372 16 10.4457 16 11.3517 16H11.6717C12.5767 16 13.0297 16 13.4277 15.817C13.8257 15.634 14.1197 15.29 14.7087 14.603L15.3147 13.897C15.9037 13.21 16.1977 12.866 16.5957 12.683C16.9937 12.5 17.4457 12.5 18.3517 12.5H21.5117" stroke="" stroke-width="1.5" stroke-linecap="round"/>
<path d="M21.5117 11.5C21.5117 16.214 21.5117 18.571 20.0467 20.036C18.5837 21.5 16.2257 21.5 11.5117 21.5C6.79772 21.5 4.44072 21.5 2.97572 20.036C1.51172 18.57 1.51172 16.214 1.51172 11.5C1.51172 6.78595 1.51172 4.42995 2.97572 2.96495C3.79272 2.14795 4.88572 1.78695 6.51172 1.62695M16.5117 1.62695C18.1367 1.78695 19.2317 2.14795 20.0467 2.96495C21.0207 3.93795 21.3467 5.30695 21.4567 7.49995" stroke="" stroke-width="1.5" stroke-linecap="round"/>
</svg>
