<svg width="21" height="19" viewBox="0 0 21 19" fill="currentColor" xmlns="http://www.w3.org/2000/svg">
<path d="M12.7357 11.27C13.1791 11.4917 13.58 11.7688 13.9386 12.1013C14.2972 12.4337 14.6003 12.8184 14.8481 13.2552H13.3127C12.9607 12.8575 12.5434 12.5511 12.061 12.336C11.5785 12.1208 11.0668 12.01 10.5256 12.0035C10.0041 12.0035 9.51838 12.1013 9.06854 12.2968C8.6187 12.4924 8.22101 12.7597 7.87547 13.0987C7.52994 13.4377 7.25938 13.8387 7.0638 14.3016C6.86821 14.7645 6.77042 15.2502 6.77042 15.7587H5.51868C5.51868 15.2828 5.58388 14.8231 5.71427 14.3798C5.84466 13.9365 6.03046 13.516 6.27168 13.1183C6.5129 12.7206 6.80954 12.3685 7.16159 12.0621C7.51364 11.7557 7.89829 11.4917 8.31554 11.27C7.82658 10.918 7.44845 10.4779 7.18115 9.94982C6.91385 9.42174 6.77694 8.85455 6.77042 8.24824C6.77042 7.9027 6.70523 7.57999 6.57484 7.28009C6.44445 6.9802 6.26516 6.7129 6.03698 6.4782C5.8088 6.2435 5.54476 6.06421 5.24486 5.94034C4.94497 5.81647 4.61899 5.75127 4.26694 5.74476C3.92141 5.74476 3.59869 5.80995 3.2988 5.94034C2.9989 6.07073 2.7316 6.25002 2.4969 6.4782C2.2622 6.70638 2.08291 6.97042 1.95904 7.27031C1.83517 7.57021 1.76998 7.89618 1.76346 8.24824H0.511719C0.511719 7.90922 0.557355 7.57673 0.648628 7.25076C0.739901 6.92478 0.867031 6.62163 1.03002 6.34129C1.193 6.06095 1.39837 5.80017 1.64611 5.55895C1.89385 5.31773 2.16441 5.11889 2.45778 4.96242C2.23612 4.73424 2.06662 4.4702 1.94926 4.1703C1.83191 3.8704 1.76998 3.56073 1.76346 3.24127C1.76346 2.89574 1.82865 2.57303 1.95904 2.27313C2.08943 1.97323 2.26872 1.70594 2.4969 1.47123C2.72508 1.23653 2.98912 1.05725 3.28902 0.933377C3.58891 0.809507 3.91489 0.744312 4.26694 0.737793C4.61247 0.737793 4.93519 0.802988 5.23508 0.933377C5.53498 1.06377 5.80228 1.24305 6.03698 1.47123C6.27168 1.69942 6.45097 1.96346 6.57484 2.26335C6.69871 2.56325 6.7639 2.88922 6.77042 3.24127C6.77042 3.56073 6.71175 3.8704 6.5944 4.1703C6.47705 4.4702 6.30428 4.73424 6.0761 4.96242C6.34992 5.11237 6.5944 5.29165 6.80954 5.50027C7.02468 5.7089 7.22027 5.93708 7.39629 6.18482C7.57232 5.92404 7.77442 5.68934 8.0026 5.48072C8.23079 5.27209 8.47853 5.09607 8.74583 4.95264C9.01312 4.80921 9.29672 4.69512 9.59662 4.61037C9.89651 4.52561 10.2062 4.4865 10.5256 4.49301C10.8386 4.49301 11.145 4.53213 11.4449 4.61037C11.7448 4.6886 12.0284 4.79943 12.2957 4.94286C12.563 5.08629 12.814 5.26557 13.0487 5.48072C13.2834 5.69586 13.4855 5.93056 13.655 6.18482C13.8245 5.93708 14.0168 5.7089 14.232 5.50027C14.4471 5.29165 14.6949 5.11237 14.9752 4.96242C14.7535 4.73424 14.584 4.4702 14.4667 4.1703C14.3493 3.8704 14.2874 3.56073 14.2809 3.24127C14.2809 2.89574 14.3461 2.57303 14.4765 2.27313C14.6068 1.97323 14.7861 1.70594 15.0143 1.47123C15.2425 1.23653 15.5065 1.05725 15.8064 0.933377C16.1063 0.809507 16.4323 0.744312 16.7843 0.737793C17.1299 0.737793 17.4526 0.802988 17.7525 0.933377C18.0524 1.06377 18.3197 1.24305 18.5544 1.47123C18.7891 1.69942 18.9684 1.96346 19.0922 2.26335C19.2161 2.56325 19.2813 2.88922 19.2878 3.24127C19.2878 3.56073 19.2292 3.8704 19.1118 4.1703C18.9945 4.4702 18.8217 4.73424 18.5935 4.96242C18.8934 5.1254 19.164 5.32425 19.4052 5.55895C19.6464 5.79365 19.8485 6.05117 20.0115 6.33151C20.1745 6.61185 20.3049 6.91826 20.4027 7.25076C20.5005 7.58325 20.5461 7.91574 20.5396 8.24824H19.2878C19.2878 7.9027 19.2226 7.57999 19.0922 7.28009C18.9619 6.9802 18.7826 6.7129 18.5544 6.4782C18.3262 6.2435 18.0622 6.06421 17.7623 5.94034C17.4624 5.81647 17.1364 5.75127 16.7843 5.74476C16.4388 5.74476 16.1161 5.80995 15.8162 5.94034C15.5163 6.07073 15.249 6.25002 15.0143 6.4782C14.7796 6.70638 14.6003 6.97042 14.4765 7.27031C14.3526 7.57021 14.2874 7.89618 14.2809 8.24824C14.2809 8.84803 14.1472 9.41196 13.8799 9.94004C13.6126 10.4681 13.2312 10.9114 12.7357 11.27ZM16.7843 1.98953C16.6083 1.98953 16.4453 2.02213 16.2954 2.08733C16.1454 2.15252 16.015 2.24053 15.9042 2.35136C15.7934 2.4622 15.7021 2.59585 15.6304 2.75231C15.5587 2.90878 15.5261 3.07177 15.5326 3.24127C15.5326 3.4173 15.5652 3.58029 15.6304 3.73024C15.6956 3.88018 15.7836 4.01057 15.8944 4.1214C16.0053 4.23224 16.1389 4.32351 16.2954 4.39522C16.4519 4.46694 16.6148 4.49953 16.7843 4.49301C16.9604 4.49301 17.1234 4.46042 17.2733 4.39522C17.4233 4.33003 17.5536 4.24201 17.6645 4.13118C17.7753 4.02035 17.8666 3.8867 17.9383 3.73024C18.01 3.57377 18.0426 3.41078 18.0361 3.24127C18.0361 3.06525 18.0035 2.90226 17.9383 2.75231C17.8731 2.60236 17.7851 2.47198 17.6743 2.36114C17.5634 2.25031 17.4298 2.15904 17.2733 2.08733C17.1168 2.01561 16.9539 1.98301 16.7843 1.98953ZM4.26694 4.49301C4.44297 4.49301 4.60595 4.46042 4.7559 4.39522C4.90585 4.33003 5.03624 4.24201 5.14707 4.13118C5.2579 4.02035 5.34917 3.8867 5.42089 3.73024C5.4926 3.57377 5.5252 3.41078 5.51868 3.24127C5.51868 3.06525 5.48608 2.90226 5.42089 2.75231C5.35569 2.60236 5.26768 2.47198 5.15685 2.36114C5.04602 2.25031 4.91237 2.15904 4.7559 2.08733C4.59943 2.01561 4.43645 1.98301 4.26694 1.98953C4.09091 1.98953 3.92793 2.02213 3.77798 2.08733C3.62803 2.15252 3.49764 2.24053 3.38681 2.35136C3.27598 2.4622 3.18471 2.59585 3.11299 2.75231C3.04128 2.90878 3.00868 3.07177 3.0152 3.24127C3.0152 3.4173 3.0478 3.58029 3.11299 3.73024C3.17819 3.88018 3.2662 4.01057 3.37703 4.1214C3.48786 4.23224 3.62151 4.32351 3.77798 4.39522C3.93445 4.46694 4.09743 4.49953 4.26694 4.49301ZM10.5256 10.7517C10.8712 10.7517 11.1939 10.6865 11.4938 10.5561C11.7937 10.4257 12.061 10.2465 12.2957 10.0183C12.5304 9.79009 12.7097 9.52606 12.8335 9.22616C12.9574 8.92626 13.0226 8.60029 13.0291 8.24824C13.0291 7.9027 12.9639 7.57999 12.8335 7.28009C12.7032 6.9802 12.5239 6.7129 12.2957 6.4782C12.0675 6.2435 11.8035 6.06421 11.5036 5.94034C11.2037 5.81647 10.8777 5.75127 10.5256 5.74476C10.1801 5.74476 9.8574 5.80995 9.5575 5.94034C9.2576 6.07073 8.99031 6.25002 8.7556 6.4782C8.5209 6.70638 8.34162 6.97042 8.21775 7.27031C8.09388 7.57021 8.02868 7.89618 8.02216 8.24824C8.02216 8.59377 8.08736 8.91648 8.21775 9.21638C8.34814 9.51628 8.52742 9.78357 8.7556 10.0183C8.98379 10.253 9.24783 10.4323 9.54772 10.5561C9.84762 10.68 10.1736 10.7452 10.5256 10.7517ZM18.0361 14.5069H20.5396V15.7587H18.0361V18.2622H16.7843V15.7587H14.2809V14.5069H16.7843V12.0035H18.0361V14.5069Z" fill=""/>
</svg>
