<svg width="16" height="13" viewBox="0 0 16 13" fill="none" xmlns="http://www.w3.org/2000/svg">
<path d="M0 3.2C0 2.32 0.72 1.6 1.6 1.6H4L5.6 0H10.4L12 1.6H14.4C14.8243 1.6 15.2313 1.76857 15.5314 2.06863C15.8314 2.36869 16 2.77565 16 3.2V11.2C16 11.6243 15.8314 12.0313 15.5314 12.3314C15.2313 12.6314 14.8243 12.8 14.4 12.8H1.6C1.17565 12.8 0.768687 12.6314 0.468629 12.3314C0.168571 12.0313 0 11.6243 0 11.2V3.2ZM8 11.2C9.06087 11.2 10.0783 10.7786 10.8284 10.0284C11.5786 9.27828 12 8.26087 12 7.2C12 6.13913 11.5786 5.12172 10.8284 4.37157C10.0783 3.62143 9.06087 3.2 8 3.2C6.93913 3.2 5.92172 3.62143 5.17157 4.37157C4.42143 5.12172 4 6.13913 4 7.2C4 8.26087 4.42143 9.27828 5.17157 10.0284C5.92172 10.7786 6.93913 11.2 8 11.2ZM8 9.6C7.68483 9.6 7.37274 9.53792 7.08156 9.41731C6.79038 9.2967 6.5258 9.11992 6.30294 8.89706C6.08008 8.6742 5.9033 8.40962 5.78269 8.11844C5.66208 7.82726 5.6 7.51517 5.6 7.2C5.6 6.88483 5.66208 6.57274 5.78269 6.28156C5.9033 5.99038 6.08008 5.7258 6.30294 5.50294C6.5258 5.28008 6.79038 5.1033 7.08156 4.98269C7.37274 4.86208 7.68483 4.8 8 4.8C8.63652 4.8 9.24697 5.05286 9.69706 5.50294C10.1471 5.95303 10.4 6.56348 10.4 7.2C10.4 7.83652 10.1471 8.44697 9.69706 8.89706C9.24697 9.34714 8.63652 9.6 8 9.6Z" fill="#EAEAEB"/>
</svg>
