<svg width="18" height="20" viewBox="0 0 18 20" fill="currentColor" xmlns="http://www.w3.org/2000/svg">
<path d="M16 13.333V16.333C16 16.883 15.55 17.333 15 17.333H14V13.333H16ZM4 13.333V17.333H3C2.45 17.333 2 16.883 2 16.333V13.333H4ZM9 0.333008C6.61305 0.333008 4.32387 1.28122 2.63604 2.96905C0.948211 4.65687 0 6.94606 0 9.33301V16.333C0 17.993 1.34 19.333 3 19.333H6V11.333H2V9.33301C2 5.46301 5.13 2.33301 9 2.33301C12.87 2.33301 16 5.46301 16 9.33301V11.333H12V19.333H15C16.66 19.333 18 17.993 18 16.333V9.33301C18 6.94606 17.0518 4.65687 15.364 2.96905C13.6761 1.28122 11.3869 0.333008 9 0.333008Z" fill=""/>
</svg>
