<svg width="21" height="22" viewBox="0 0 21 22" fill="none" xmlns="http://www.w3.org/2000/svg">
<path fill-rule="evenodd" clip-rule="evenodd" d="M13.5 0.25H9.444C7.606 0.25 6.15 0.25 5.011 0.403C3.839 0.561 2.89 0.893 2.141 1.641C1.393 2.39 1.061 3.339 0.903 4.511C0.75 5.651 0.75 7.106 0.75 8.944V15C0.750024 15.8934 1.06894 16.7575 1.64934 17.4367C2.22974 18.1159 3.03351 18.5657 3.916 18.705C4.053 19.469 4.318 20.121 4.848 20.652C5.45 21.254 6.208 21.512 7.108 21.634C7.975 21.75 9.078 21.75 10.445 21.75H13.555C14.922 21.75 16.025 21.75 16.892 21.634C17.792 21.512 18.55 21.254 19.152 20.652C19.754 20.05 20.012 19.292 20.134 18.392C20.25 17.525 20.25 16.422 20.25 15.055V9.945C20.25 8.578 20.25 7.475 20.134 6.608C20.012 5.708 19.754 4.95 19.152 4.348C18.621 3.818 17.969 3.553 17.205 3.416C17.0657 2.53351 16.6159 1.72974 15.9367 1.14934C15.2575 0.568936 14.3934 0.250024 13.5 0.25ZM15.63 3.271C15.4779 2.827 15.1909 2.44166 14.8089 2.16893C14.427 1.89619 13.9693 1.74971 13.5 1.75H9.5C7.593 1.75 6.239 1.752 5.21 1.89C4.205 2.025 3.625 2.279 3.202 2.702C2.779 3.125 2.525 3.705 2.39 4.711C2.252 5.739 2.25 7.093 2.25 9V15C2.24971 15.4693 2.39619 15.927 2.66892 16.3089C2.94166 16.6908 3.327 16.9779 3.771 17.13C3.75 16.52 3.75 15.83 3.75 15.055V9.945C3.75 8.578 3.75 7.475 3.867 6.608C3.987 5.708 4.247 4.95 4.848 4.348C5.45 3.746 6.208 3.488 7.108 3.367C7.975 3.25 9.078 3.25 10.445 3.25H13.555C14.33 3.25 15.02 3.25 15.63 3.271ZM5.908 5.41C6.185 5.133 6.573 4.953 7.308 4.854C8.062 4.753 9.064 4.751 10.499 4.751H13.499C14.934 4.751 15.935 4.753 16.691 4.854C17.425 4.953 17.813 5.134 18.09 5.41C18.367 5.687 18.547 6.075 18.646 6.81C18.747 7.564 18.749 8.566 18.749 10.001V15.001C18.749 16.436 18.747 17.437 18.646 18.193C18.547 18.927 18.366 19.315 18.09 19.592C17.813 19.869 17.425 20.049 16.69 20.148C15.935 20.249 14.934 20.251 13.499 20.251H10.499C9.064 20.251 8.062 20.249 7.307 20.148C6.573 20.049 6.185 19.868 5.908 19.592C5.631 19.315 5.451 18.927 5.352 18.192C5.251 17.437 5.249 16.436 5.249 15.001V10.001C5.249 8.566 5.251 7.564 5.352 6.809C5.451 6.075 5.632 5.687 5.908 5.41Z" fill="#2652FF"/>
</svg>
