<svg width="21" height="20" viewBox="0 0 21 20" fill="currentColor" xmlns="http://www.w3.org/2000/svg">
<path opacity="0.4" d="M14.5776 0H17.9636C19.3658 0 20.5021 1.14585 20.5021 2.55996V5.97452C20.5021 7.38864 19.3658 8.53449 17.9636 8.53449H14.5776C13.1753 8.53449 12.0391 7.38864 12.0391 5.97452V2.55996C12.0391 1.14585 13.1753 0 14.5776 0Z" fill=""/>
<path fill-rule="evenodd" clip-rule="evenodd" d="M3.03852 0H6.42449C7.82676 0 8.96301 1.14585 8.96301 2.55996V5.97452C8.96301 7.38864 7.82676 8.53449 6.42449 8.53449H3.03852C1.63626 8.53449 0.5 7.38864 0.5 5.97452V2.55996C0.5 1.14585 1.63626 0 3.03852 0ZM3.03852 11.4655H6.42449C7.82676 11.4655 8.96301 12.6114 8.96301 14.0255V17.44C8.96301 18.8532 7.82676 20 6.42449 20H3.03852C1.63626 20 0.5 18.8532 0.5 17.44V14.0255C0.5 12.6114 1.63626 11.4655 3.03852 11.4655ZM17.9615 11.4655H14.5755C13.1732 11.4655 12.037 12.6114 12.037 14.0255V17.44C12.037 18.8532 13.1732 20 14.5755 20H17.9615C19.3637 20 20.5 18.8532 20.5 17.44V14.0255C20.5 12.6114 19.3637 11.4655 17.9615 11.4655Z" fill=""/>
</svg>
