<svg width="23" height="23" viewBox="0 0 23 23" fill="none" stroke="currentColor" xmlns="http://www.w3.org/2000/svg">
<path d="M16.5117 8.50195C18.6867 8.51395 19.8647 8.61095 20.6327 9.37895C21.5117 10.258 21.5117 11.672 21.5117 14.5V15.5C21.5117 18.329 21.5117 19.743 20.6327 20.622C19.7547 21.5 18.3397 21.5 15.5117 21.5H7.51172C4.68372 21.5 3.26872 21.5 2.39072 20.622C1.51172 19.742 1.51172 18.329 1.51172 15.5V14.5C1.51172 11.672 1.51172 10.258 2.39072 9.37895C3.15872 8.61095 4.33672 8.51395 6.51172 8.50195" stroke="" stroke-width="1.5" stroke-linecap="round"/>
<path d="M11.5117 14.5V1.5M11.5117 1.5L14.5117 5M11.5117 1.5L8.51172 5" stroke="" stroke-width="1.5" stroke-linecap="round" stroke-linejoin="round"/>
</svg>
