<svg width="21" height="21" viewBox="0 0 21 21" fill="currentColor" xmlns="http://www.w3.org/2000/svg">
<path d="M5.51172 2.375C5.51172 2.58875 5.49047 2.7975 5.44922 3H9.26172C9.59324 3 9.91118 3.1317 10.1456 3.36612C10.38 3.60054 10.5117 3.91848 10.5117 4.25V6.75H9.26172C8.90694 6.74934 8.55611 6.8245 8.23274 6.97045C7.90937 7.11639 7.62092 7.32976 7.38672 7.59625C6.99797 8.0375 6.76172 8.61625 6.76172 9.25V10.5H4.26172C3.9302 10.5 3.61226 10.3683 3.37784 10.1339C3.14341 9.89946 3.01172 9.58152 3.01172 9.25V5.4375C2.59926 5.52127 2.17417 5.52127 1.76172 5.4375V9.25C1.76172 9.91304 2.02511 10.5489 2.49395 11.0178C2.96279 11.4866 3.59868 11.75 4.26172 11.75H6.76172V14.25C6.76044 14.7271 6.89616 15.1945 7.15276 15.5966C7.40936 15.9988 7.77604 16.3189 8.20922 16.5187C8.04244 15.838 7.98047 15.1357 8.02547 14.4363C8.01629 14.3746 8.01169 14.3123 8.01172 14.25V9.25C8.01172 8.91848 8.14341 8.60054 8.37784 8.36612C8.61226 8.1317 8.9302 8 9.26172 8H14.2617C14.3242 8 14.3867 8.005 14.448 8.01375C15.1474 7.97007 15.8495 8.03201 16.5305 8.1975C16.329 7.76555 16.0086 7.39997 15.6067 7.1436C15.2049 6.88723 14.7384 6.7507 14.2617 6.75H11.7617V4.25C11.7617 3.58696 11.4983 2.95107 11.0295 2.48223C10.5606 2.01339 9.92476 1.75 9.26172 1.75H5.44922C5.49047 1.9525 5.51172 2.16125 5.51172 2.375ZM4.26172 2.375C4.26172 2.87228 4.06417 3.34919 3.71254 3.70083C3.36091 4.05246 2.884 4.25 2.38672 4.25C1.88944 4.25 1.41252 4.05246 1.06089 3.70083C0.709263 3.34919 0.511719 2.87228 0.511719 2.375C0.511719 1.87772 0.709263 1.40081 1.06089 1.04917C1.41252 0.697544 1.88944 0.5 2.38672 0.5C2.884 0.5 3.36091 0.697544 3.71254 1.04917C4.06417 1.40081 4.26172 1.87772 4.26172 2.375ZM18.0117 2.375C18.0117 2.87228 17.8142 3.34919 17.4625 3.70083C17.1109 4.05246 16.634 4.25 16.1367 4.25C15.6394 4.25 15.1625 4.05246 14.8109 3.70083C14.4593 3.34919 14.2617 2.87228 14.2617 2.375C14.2617 1.87772 14.4593 1.40081 14.8109 1.04917C15.1625 0.697544 15.6394 0.5 16.1367 0.5C16.634 0.5 17.1109 0.697544 17.4625 1.04917C17.8142 1.40081 18.0117 1.87772 18.0117 2.375ZM4.26172 16.125C4.26172 16.6223 4.06417 17.0992 3.71254 17.4508C3.36091 17.8025 2.884 18 2.38672 18C1.88944 18 1.41252 17.8025 1.06089 17.4508C0.709263 17.0992 0.511719 16.6223 0.511719 16.125C0.511719 15.6277 0.709263 15.1508 1.06089 14.7992C1.41252 14.4475 1.88944 14.25 2.38672 14.25C2.884 14.25 3.36091 14.4475 3.71254 14.7992C4.06417 15.1508 4.26172 15.6277 4.26172 16.125ZM14.8867 20.5C16.3786 20.5 17.8093 19.9074 18.8642 18.8525C19.9191 17.7976 20.5117 16.3668 20.5117 14.875C20.5117 13.3832 19.9191 11.9524 18.8642 10.8975C17.8093 9.84263 16.3786 9.25 14.8867 9.25C13.3949 9.25 11.9641 9.84263 10.9092 10.8975C9.85435 11.9524 9.26172 13.3832 9.26172 14.875C9.26172 16.3668 9.85435 17.7976 10.9092 18.8525C11.9641 19.9074 13.3949 20.5 14.8867 20.5ZM13.7667 12.505L12.6455 13.625H14.5742C15.4859 13.625 16.3602 13.9872 17.0049 14.6318C17.6496 15.2765 18.0117 16.1508 18.0117 17.0625V17.375C18.0117 17.5408 17.9459 17.6997 17.8287 17.8169C17.7115 17.9342 17.5525 18 17.3867 18C17.221 18 17.062 17.9342 16.9448 17.8169C16.8276 17.6997 16.7617 17.5408 16.7617 17.375V17.0625C16.7617 16.4823 16.5313 15.9259 16.121 15.5157C15.7108 15.1055 15.1544 14.875 14.5742 14.875H12.6455L13.7667 15.995C13.8841 16.1124 13.95 16.2715 13.95 16.4375C13.95 16.6035 13.8841 16.7626 13.7667 16.88C13.6494 16.9974 13.4902 17.0633 13.3242 17.0633C13.1582 17.0633 12.9991 16.9974 12.8817 16.88L10.6917 14.6887C10.5753 14.5715 10.5102 14.4128 10.5107 14.2476C10.5112 14.0824 10.5772 13.9241 10.6942 13.8075L12.8817 11.62C12.9991 11.5026 13.1582 11.4367 13.3242 11.4367C13.4902 11.4367 13.6494 11.5026 13.7667 11.62C13.8841 11.7374 13.95 11.8965 13.95 12.0625C13.95 12.2285 13.8841 12.3876 13.7667 12.505Z" fill=""/>
</svg>
