<svg width="18" height="18" viewBox="0 0 18 18" fill="none" xmlns="http://www.w3.org/2000/svg">
<path d="M1 12.1999C1 9.9375 1 8.8055 1.7032 8.1031C2.4056 7.3999 3.5376 7.3999 5.8 7.3999H12.2C14.4624 7.3999 15.5944 7.3999 16.2968 8.1031C17 8.8055 17 9.9375 17 12.1999C17 14.4623 17 15.5943 16.2968 16.2967C15.5944 16.9999 14.4624 16.9999 12.2 16.9999H5.8C3.5376 16.9999 2.4056 16.9999 1.7032 16.2967C1 15.5943 1 14.4623 1 12.1999Z" stroke="#44AC22" stroke-width="1.5"/>
<path d="M4.19922 7.4V5.8C4.19922 4.52696 4.70493 3.30606 5.60511 2.40589C6.50528 1.50571 7.72618 1 8.99922 1C10.2723 1 11.4932 1.50571 12.3933 2.40589C13.2935 3.30606 13.7992 4.52696 13.7992 5.8V7.4" stroke="#44AC22" stroke-width="1.5" stroke-linecap="round"/>
</svg>
