<svg width="18" height="21" viewBox="0 0 18 21" fill="currentColor" xmlns="http://www.w3.org/2000/svg">
<path opacity="0.6" d="M6 20.333H7C9.828 20.333 11.243 20.333 12.121 19.454C13 18.576 13 17.161 13 14.333L13 6.33301C13 3.50501 13 2.09001 12.121 1.21201C11.243 0.333008 9.828 0.333008 7 0.333008H6C3.172 0.333008 1.757 0.333008 0.879 1.21201C0 2.09001 0 3.50501 0 6.33301L0 14.333C0 17.161 0 18.576 0.879 19.454C1.757 20.333 3.172 20.333 6 20.333Z" fill=""/>
<path opacity="0.4" d="M13 14.333C13 15.871 13 16.99 12.859 17.833H13C15.357 17.833 16.536 17.833 17.268 17.101C18 16.369 18 15.19 18 12.833L18 7.83301C18 5.47601 18 4.29801 17.268 3.56501C16.536 2.83301 15.357 2.83301 13 2.83301H12.859C13 3.67601 13 4.79501 13 6.33301L13 14.333Z" fill=""/>
<path fill-rule="evenodd" clip-rule="evenodd" d="M16.5307 10.8629C16.6711 10.7222 16.75 10.5316 16.75 10.3329C16.75 10.1341 16.6711 9.94348 16.5307 9.80285L14.5307 7.80285C14.3885 7.67037 14.2004 7.59825 14.0061 7.60168C13.8118 7.60511 13.6265 7.68382 13.489 7.82123C13.3516 7.95865 13.2729 8.14403 13.2695 8.33833C13.2661 8.53263 13.3382 8.72068 13.4707 8.86285L14.1907 9.58285L7.00066 9.58285C6.80175 9.58285 6.61098 9.66187 6.47033 9.80252C6.32968 9.94318 6.25066 10.1339 6.25066 10.3329C6.25066 10.5318 6.32968 10.7225 6.47033 10.8632C6.61098 11.0038 6.80175 11.0829 7.00066 11.0829L14.1907 11.0829L13.4707 11.8029C13.397 11.8715 13.3379 11.9543 13.2969 12.0463C13.2559 12.1383 13.2338 12.2376 13.2321 12.3383C13.2303 12.439 13.2488 12.5391 13.2865 12.6325C13.3243 12.7258 13.3804 12.8107 13.4516 12.8819C13.5228 12.9531 13.6077 13.0093 13.7011 13.047C13.7945 13.0847 13.8945 13.1032 13.9952 13.1014C14.0959 13.0997 14.1952 13.0776 14.2872 13.0366C14.3792 12.9956 14.462 12.9365 14.5307 12.8629L16.5307 10.8629Z" fill=""/>
</svg>
