<svg width="21" height="20" viewBox="0 0 21 20" fill="none" stroke="currentColor" xmlns="http://www.w3.org/2000/svg">
<path d="M12.2968 19.1204H8.70176C5.31255 19.1204 3.6175 19.1204 2.56506 18.0671C1.51172 17.0147 1.51172 15.3196 1.51172 11.9304V10.1329C1.51172 6.74369 1.51172 5.04864 2.56506 3.9962C3.6175 2.94286 5.31255 2.94286 8.70176 2.94286H12.2968C15.686 2.94286 17.381 2.94286 18.4335 3.9962C19.4868 5.04864 19.4868 6.74369 19.4868 10.1329V11.9304C19.4868 15.3196 19.4868 17.0147 18.4335 18.0671C17.8466 18.6549 17.0602 18.9146 15.8918 19.0288M6.00549 2.94286V1.59473M14.993 2.94286V1.59473M19.0374 7.43663H9.37582M1.51172 7.43663H4.99439" stroke="" stroke-width="1.5" stroke-linecap="round"/>
<path d="M15.8905 14.6266C15.8905 14.865 15.7958 15.0936 15.6273 15.2621C15.4587 15.4307 15.2301 15.5253 14.9918 15.5253C14.7534 15.5253 14.5248 15.4307 14.3563 15.2621C14.1877 15.0936 14.093 14.865 14.093 14.6266C14.093 14.3882 14.1877 14.1596 14.3563 13.9911C14.5248 13.8225 14.7534 13.7278 14.9918 13.7278C15.2301 13.7278 15.4587 13.8225 15.6273 13.9911C15.7958 14.1596 15.8905 14.3882 15.8905 14.6266ZM15.8905 11.0316C15.8905 11.2699 15.7958 11.4985 15.6273 11.6671C15.4587 11.8356 15.2301 11.9303 14.9918 11.9303C14.7534 11.9303 14.5248 11.8356 14.3563 11.6671C14.1877 11.4985 14.093 11.2699 14.093 11.0316C14.093 10.7932 14.1877 10.5646 14.3563 10.3961C14.5248 10.2275 14.7534 10.1328 14.9918 10.1328C15.2301 10.1328 15.4587 10.2275 15.6273 10.3961C15.7958 10.5646 15.8905 10.7932 15.8905 11.0316ZM11.3968 14.6266C11.3968 14.865 11.3021 15.0936 11.1335 15.2621C10.965 15.4307 10.7364 15.5253 10.498 15.5253C10.2596 15.5253 10.031 15.4307 9.86248 15.2621C9.69393 15.0936 9.59924 14.865 9.59924 14.6266C9.59924 14.3882 9.69393 14.1596 9.86248 13.9911C10.031 13.8225 10.2596 13.7278 10.498 13.7278C10.7364 13.7278 10.965 13.8225 11.1335 13.9911C11.3021 14.1596 11.3968 14.3882 11.3968 14.6266ZM11.3968 11.0316C11.3968 11.2699 11.3021 11.4985 11.1335 11.6671C10.965 11.8356 10.7364 11.9303 10.498 11.9303C10.2596 11.9303 10.031 11.8356 9.86248 11.6671C9.69393 11.4985 9.59924 11.2699 9.59924 11.0316C9.59924 10.7932 9.69393 10.5646 9.86248 10.3961C10.031 10.2275 10.2596 10.1328 10.498 10.1328C10.7364 10.1328 10.965 10.2275 11.1335 10.3961C11.3021 10.5646 11.3968 10.7932 11.3968 11.0316ZM6.90298 14.6266C6.90298 14.865 6.80829 15.0936 6.63974 15.2621C6.47119 15.4307 6.24259 15.5253 6.00422 15.5253C5.76586 15.5253 5.53726 15.4307 5.36871 15.2621C5.20016 15.0936 5.10547 14.865 5.10547 14.6266C5.10547 14.3882 5.20016 14.1596 5.36871 13.9911C5.53726 13.8225 5.76586 13.7278 6.00422 13.7278C6.24259 13.7278 6.47119 13.8225 6.63974 13.9911C6.80829 14.1596 6.90298 14.3882 6.90298 14.6266ZM6.90298 11.0316C6.90298 11.2699 6.80829 11.4985 6.63974 11.6671C6.47119 11.8356 6.24259 11.9303 6.00422 11.9303C5.76586 11.9303 5.53726 11.8356 5.36871 11.6671C5.20016 11.4985 5.10547 11.2699 5.10547 11.0316C5.10547 10.7932 5.20016 10.5646 5.36871 10.3961C5.53726 10.2275 5.76586 10.1328 6.00422 10.1328C6.24259 10.1328 6.47119 10.2275 6.63974 10.3961C6.80829 10.5646 6.90298 10.7932 6.90298 11.0316Z" fill=""/>
</svg>
