<svg width="21" height="20" viewBox="0 0 21 20" fill="currentColor" xmlns="http://www.w3.org/2000/svg">
<path d="M7.03516 10.75C7.03516 10.5511 6.95614 10.3603 6.81549 10.2197C6.67483 10.079 6.48407 10 6.28516 10C6.08624 10 5.89548 10.079 5.75483 10.2197C5.61417 10.3603 5.53516 10.5511 5.53516 10.75V14.75C5.53516 14.9489 5.61417 15.1397 5.75483 15.2803C5.89548 15.421 6.08624 15.5 6.28516 15.5C6.48407 15.5 6.67483 15.421 6.81549 15.2803C6.95614 15.1397 7.03516 14.9489 7.03516 14.75V10.75ZM14.2852 10C14.4841 10 14.6748 10.079 14.8155 10.2197C14.9561 10.3603 15.0352 10.5511 15.0352 10.75V14.75C15.0352 14.9489 14.9561 15.1397 14.8155 15.2803C14.6748 15.421 14.4841 15.5 14.2852 15.5C14.0862 15.5 13.8955 15.421 13.7548 15.2803C13.6142 15.1397 13.5352 14.9489 13.5352 14.75V10.75C13.5352 10.5511 13.6142 10.3603 13.7548 10.2197C13.8955 10.079 14.0862 10 14.2852 10ZM11.0352 10.75C11.0352 10.5511 10.9561 10.3603 10.8155 10.2197C10.6748 10.079 10.4841 10 10.2852 10C10.0862 10 9.89548 10.079 9.75483 10.2197C9.61417 10.3603 9.53516 10.5511 9.53516 10.75V14.75C9.53516 14.9489 9.61417 15.1397 9.75483 15.2803C9.89548 15.421 10.0862 15.5 10.2852 15.5C10.4841 15.5 10.6748 15.421 10.8155 15.2803C10.9561 15.1397 11.0352 14.9489 11.0352 14.75V10.75Z" fill=""/>
<path fill-rule="evenodd" clip-rule="evenodd" d="M15.5588 1.223C15.0828 1.037 14.5498 1.006 13.8668 1.001C13.7249 0.701472 13.501 0.44838 13.2209 0.271172C12.9408 0.0939647 12.6162 -7.31157e-05 12.2848 2.11923e-07H8.28479C7.95348 -0.000162806 7.62893 0.0937262 7.34888 0.27075C7.06883 0.447774 6.84478 0.700659 6.70279 1C6.01879 1.006 5.48679 1.037 5.01079 1.223C4.44256 1.44527 3.94838 1.82301 3.58479 2.313C3.21779 2.806 3.04479 3.44 2.80879 4.311L2.18079 6.614C1.78702 6.8119 1.44207 7.09469 1.17079 7.442C0.548791 8.239 0.438791 9.188 0.549791 10.276C0.656791 11.332 0.989791 12.662 1.40579 14.326L1.43179 14.433C1.69579 15.485 1.90879 16.34 2.16279 17.007C2.42779 17.703 2.76479 18.273 3.31879 18.706C3.87379 19.139 4.50879 19.326 5.24779 19.416C5.95579 19.5 6.83779 19.5 7.92279 19.5H12.6468C13.7318 19.5 14.6128 19.5 15.3218 19.415C16.0618 19.327 16.6958 19.139 17.2498 18.705C17.8048 18.273 18.1408 17.703 18.4058 17.007C18.6608 16.34 18.8738 15.485 19.1368 14.432L19.1638 14.327C19.5798 12.662 19.9118 11.332 20.0198 10.277C20.1298 9.187 20.0198 8.239 19.3978 7.442C19.1268 7.09481 18.7822 6.81202 18.3888 6.614L17.7608 4.311C17.5238 3.44 17.3508 2.806 16.9848 2.312C16.6211 1.82238 16.1269 1.445 15.5588 1.223ZM5.55679 2.62C5.77679 2.534 6.04279 2.509 6.70379 2.502C6.98579 3.092 7.58779 3.5 8.28379 3.5H12.2838C12.9818 3.5 13.5838 3.092 13.8658 2.502C14.5268 2.509 14.7928 2.534 15.0128 2.62C15.3188 2.74 15.5848 2.943 15.7808 3.207C15.9568 3.444 16.0598 3.775 16.3508 4.842L16.7048 6.139C15.6668 6 14.3268 6 12.6618 6H7.90679C6.24279 6 4.90279 6 3.86479 6.139L4.21879 4.842C4.50879 3.775 4.61279 3.444 4.78879 3.207C4.9846 2.94311 5.25076 2.73968 5.55679 2.62ZM8.28479 1.5C8.21849 1.5 8.1549 1.52634 8.10801 1.57322C8.06113 1.62011 8.03479 1.6837 8.03479 1.75C8.03479 1.8163 8.06113 1.87989 8.10801 1.92678C8.1549 1.97366 8.21849 2 8.28479 2H12.2848C12.3511 2 12.4147 1.97366 12.4616 1.92678C12.5085 1.87989 12.5348 1.8163 12.5348 1.75C12.5348 1.6837 12.5085 1.62011 12.4616 1.57322C12.4147 1.52634 12.3511 1.5 12.2848 1.5H8.28479ZM2.35379 8.365C2.63279 8.008 3.07379 7.768 3.98379 7.636C4.91479 7.502 6.17679 7.5 7.96979 7.5H12.5998C14.3928 7.5 15.6538 7.502 16.5848 7.636C17.4958 7.768 17.9368 8.008 18.2158 8.366C18.4948 8.723 18.6208 9.208 18.5268 10.124C18.4318 11.06 18.1278 12.284 17.6928 14.024C17.4158 15.132 17.2228 15.9 17.0048 16.474C16.7928 17.028 16.5858 17.321 16.3268 17.524C16.0678 17.726 15.7328 17.855 15.1438 17.926C14.5338 17.999 13.7438 18 12.5998 18H7.96979C6.82579 18 6.03479 17.999 5.42579 17.926C4.83579 17.856 4.50179 17.726 4.24279 17.524C3.98279 17.321 3.77579 17.028 3.56479 16.474C3.34679 15.9 3.15379 15.132 2.87579 14.024C2.44179 12.284 2.13679 11.06 2.04179 10.124C1.94879 9.208 2.07479 8.722 2.35379 8.365Z" fill=""/>
</svg>
