<svg width="33" height="24" viewBox="0 0 33 24" fill="none" xmlns="http://www.w3.org/2000/svg">
<path d="M8.96484 7.39258L16.6434 12.7676L24.322 7.39258" stroke="#7D7F82" stroke-width="1.5" stroke-linecap="round" stroke-linejoin="round"/>
<path d="M1.28516 19.6786V4.32143C1.28516 3.50684 1.60875 2.72561 2.18476 2.1496C2.76076 1.5736 3.54199 1.25 4.35658 1.25H28.928C29.7426 1.25 30.5238 1.5736 31.0998 2.1496C31.6758 2.72561 31.9994 3.50684 31.9994 4.32143V19.6786C31.9994 20.4932 31.6758 21.2744 31.0998 21.8504C30.5238 22.4264 29.7426 22.75 28.928 22.75H4.35658C3.54199 22.75 2.76076 22.4264 2.18476 21.8504C1.60875 21.2744 1.28516 20.4932 1.28516 19.6786Z" stroke="#7D7F82" stroke-width="1.5"/>
</svg>
