<svg width="22" height="22" viewBox="0 0 22 22" fill="currentColor" xmlns="http://www.w3.org/2000/svg">
<path d="M7.25213 14.5906H5.75391V13.0924C5.7545 12.4965 5.99146 11.9252 6.41279 11.5039C6.83412 11.0826 7.40539 10.8456 8.00124 10.845H12.4959V12.3432H8.00124C7.80262 12.3434 7.6122 12.4224 7.47176 12.5629C7.33131 12.7033 7.25233 12.8937 7.25213 13.0924V14.5906ZM10.2486 10.0959C9.65593 10.0959 9.0766 9.92018 8.58384 9.59092C8.09107 9.26167 7.70701 8.79369 7.48022 8.24616C7.25342 7.69863 7.19408 7.09615 7.3097 6.51489C7.42532 5.93364 7.71071 5.39973 8.12977 4.98067C8.54883 4.56161 9.08274 4.27622 9.66399 4.1606C10.2452 4.04499 10.8477 4.10433 11.3953 4.33112C11.9428 4.55791 12.4108 4.94197 12.74 5.43474C13.0693 5.9275 13.245 6.50683 13.245 7.09947C13.244 7.89387 12.928 8.65545 12.3663 9.21718C11.8046 9.77891 11.043 10.0949 10.2486 10.0959ZM10.2486 5.60125C9.95225 5.60125 9.66258 5.68912 9.4162 5.85375C9.16982 6.01837 8.97779 6.25236 8.86439 6.52613C8.751 6.79989 8.72133 7.10113 8.77914 7.39176C8.83695 7.68239 8.97964 7.94934 9.18917 8.15887C9.3987 8.3684 9.66566 8.5111 9.95628 8.5689C10.2469 8.62671 10.5482 8.59704 10.8219 8.48365C11.0957 8.37025 11.3297 8.17822 11.4943 7.93184C11.6589 7.68546 11.7468 7.39579 11.7468 7.09947C11.7464 6.70224 11.5884 6.32139 11.3075 6.04051C11.0266 5.75962 10.6458 5.60165 10.2486 5.60125ZM16.9906 15.3397C16.3979 15.3397 15.8186 15.1639 15.3258 14.8347C14.8331 14.5054 14.449 14.0375 14.2222 13.4899C13.9954 12.9424 13.9361 12.3399 14.0517 11.7587C14.1673 11.1774 14.4527 10.6435 14.8718 10.2244C15.2908 9.80538 15.8247 9.52 16.406 9.40438C16.9872 9.28876 17.5897 9.3481 18.1373 9.57489C18.6848 9.80169 19.1528 10.1857 19.482 10.6785C19.8113 11.1713 19.987 11.7506 19.987 12.3432C19.986 13.1376 19.67 13.8992 19.1083 14.461C18.5465 15.0227 17.785 15.3387 16.9906 15.3397ZM16.9906 10.845C16.6942 10.845 16.4046 10.9329 16.1582 11.0975C15.9118 11.2621 15.7198 11.4961 15.6064 11.7699C15.493 12.0437 15.4633 12.3449 15.5211 12.6355C15.5789 12.9262 15.7216 13.1931 15.9312 13.4026C16.1407 13.6122 16.4077 13.7549 16.6983 13.8127C16.9889 13.8705 17.2901 13.8408 17.5639 13.7274C17.8377 13.614 18.0717 13.422 18.2363 13.1756C18.4009 12.9292 18.4888 12.6396 18.4888 12.3432C18.4884 11.946 18.3304 11.5652 18.0495 11.2843C17.7686 11.0034 17.3878 10.8454 16.9906 10.845ZM21.4852 19.8344H19.987V18.3361C19.9868 18.1375 19.9078 17.9471 19.7674 17.8066C19.6269 17.6662 19.4365 17.5872 19.2379 17.587H14.7432C14.5446 17.5872 14.3542 17.6662 14.2138 17.8066C14.0733 17.9471 13.9943 18.1375 13.9941 18.3361V19.8344H12.4959V18.3361C12.4965 17.7403 12.7335 17.169 13.1548 16.7477C13.5761 16.3264 14.1474 16.0894 14.7432 16.0888H19.2379C19.8337 16.0894 20.405 16.3264 20.8263 16.7477C21.2477 17.169 21.4846 17.7403 21.4852 18.3361V19.8344Z" fill=""/>
<path d="M9.50105 19.6343L5.58021 17.5443C4.50089 16.9702 3.59829 16.1129 2.96929 15.0647C2.3403 14.0164 2.00865 12.8166 2.00995 11.5941V1.85564H16.9922V6.35031H18.4904V1.85564C18.49 1.45841 18.332 1.07756 18.0511 0.796679C17.7702 0.515794 17.3894 0.357819 16.9922 0.357422H2.00995C1.61271 0.357819 1.23187 0.515794 0.950981 0.796679C0.670096 1.07756 0.512121 1.45841 0.511724 1.85564V11.5941C0.510054 13.0881 0.915284 14.5543 1.68392 15.8354C2.45255 17.1165 3.55556 18.1641 4.87454 18.8657L9.50105 21.3325V19.6343Z" fill=""/>
</svg>
