<svg width="27" height="26" viewBox="0 0 27 26" fill="none" xmlns="http://www.w3.org/2000/svg">
<path d="M21.6859 8.2C23.6742 8.2 25.2859 6.58823 25.2859 4.6C25.2859 2.61178 23.6742 1 21.6859 1C19.6977 1 18.0859 2.61178 18.0859 4.6C18.0859 6.58823 19.6977 8.2 21.6859 8.2Z" fill="currentColor" stroke="#7D7F82" stroke-width="1.5"/>
<path d="M7.28516 15.4H18.0852M7.28516 19.6H14.4852M1.28516 13C1.28516 18.6568 1.28516 21.4852 3.04196 23.242C4.80116 25 7.62836 25 13.2852 25C18.942 25 21.7704 25 23.5272 23.242C25.2852 21.4864 25.2852 18.6568 25.2852 13V11.2M15.0852 1H13.2852C7.62836 1 4.79996 1 3.04196 2.7568C1.87436 3.9256 1.48196 5.5684 1.35116 8.2" stroke="#7D7F82" stroke-width="1.5" stroke-linecap="round"/>
</svg>
