<svg width="19" height="22" viewBox="0 0 19 22" fill="currentColor" xmlns="http://www.w3.org/2000/svg">
<path fill-rule="evenodd" clip-rule="evenodd" d="M6.67221 1.19994C6.67221 1.0143 6.74596 0.83627 6.87722 0.705007C7.00848 0.573743 7.18651 0.5 7.37215 0.5H11.5718C11.7574 0.5 11.9354 0.573743 12.0667 0.705007C12.198 0.83627 12.2717 1.0143 12.2717 1.19994C12.2717 1.38557 12.198 1.5636 12.0667 1.69487C11.9354 1.82613 11.7574 1.89987 11.5718 1.89987H10.1719V3.46773C11.6654 3.58211 13.106 4.07128 14.3603 4.89C14.3881 4.85119 14.419 4.81468 14.4527 4.78081L15.5726 3.66091C15.6539 3.57966 15.7503 3.5152 15.8565 3.47123C15.9626 3.42725 16.0764 3.40462 16.1913 3.40462C16.3063 3.40462 16.42 3.42725 16.5262 3.47123C16.6324 3.5152 16.7288 3.57966 16.8101 3.66091C16.8913 3.74217 16.9558 3.83863 16.9998 3.94479C17.0437 4.05096 17.0664 4.16474 17.0664 4.27966C17.0664 4.39457 17.0437 4.50835 16.9998 4.61452C16.9558 4.72068 16.8913 4.81714 16.8101 4.8984L15.7252 5.9833C17.1913 7.41271 18.1236 9.30119 18.3667 11.3343C18.6099 13.3674 18.1492 15.4225 17.0616 17.1573C15.9739 18.8922 14.3247 20.2021 12.3888 20.8689C10.4528 21.5358 8.34679 21.5194 6.42144 20.8224C4.49609 20.1255 2.86757 18.79 1.80705 17.0385C0.74652 15.2869 0.317981 13.2249 0.592786 11.1958C0.86759 9.16674 1.82915 7.29301 3.31737 5.88662C4.80559 4.48023 6.73065 3.62606 8.77202 3.46633V1.89987H7.37215C7.18651 1.89987 7.00848 1.82613 6.87722 1.69487C6.74596 1.5636 6.67221 1.38557 6.67221 1.19994ZM1.91265 12.3989C1.91265 10.3941 2.70907 8.47132 4.12672 7.05368C5.54436 5.63603 7.4671 4.8396 9.47196 4.8396C11.4768 4.8396 13.3996 5.63603 14.8172 7.05368C16.2348 8.47132 17.0313 10.3941 17.0313 12.3989C17.0313 14.4038 16.2348 16.3265 14.8172 17.7442C13.3996 19.1618 11.4768 19.9582 9.47196 19.9582C7.4671 19.9582 5.54436 19.1618 4.12672 17.7442C2.70907 16.3265 1.91265 14.4038 1.91265 12.3989ZM10.1719 6.79943C10.1719 6.61379 10.0982 6.43576 9.96689 6.3045C9.83562 6.17323 9.65759 6.09949 9.47196 6.09949C9.28632 6.09949 9.10829 6.17323 8.97703 6.3045C8.84577 6.43576 8.77202 6.61379 8.77202 6.79943V13.7988C8.77202 13.9844 8.84577 14.1625 8.97703 14.2937C9.10829 14.425 9.28632 14.4987 9.47196 14.4987C9.65759 14.4987 9.83562 14.425 9.96689 14.2937C10.0982 14.1625 10.1719 13.9844 10.1719 13.7988V6.79943Z" fill=""/>
</svg>
