<svg width="23" height="22" viewBox="0 0 23 22" fill="none" stroke="currentColor" xmlns="http://www.w3.org/2000/svg">
<path d="M5.51172 8.33301H9.51172" stroke="" stroke-width="1.5" stroke-linecap="round" stroke-linejoin="round"/>
<path d="M20.3447 9.33301H17.7427C15.9577 9.33301 14.5117 10.676 14.5117 12.333C14.5117 13.99 15.9587 15.333 17.7417 15.333H20.3447C20.4287 15.333 20.4697 15.333 20.5047 15.331C21.0447 15.298 21.4747 14.899 21.5097 14.398C21.5117 14.366 21.5117 14.327 21.5117 14.25V10.416C21.5117 10.339 21.5117 10.3 21.5097 10.268C21.4737 9.76701 21.0447 9.36801 20.5047 9.33501C20.4697 9.33301 20.4287 9.33301 20.3447 9.33301Z" stroke="" stroke-width="1.5"/>
<path d="M20.4767 9.33301C20.3987 7.46101 20.1487 6.31301 19.3397 5.50501C18.1687 4.33301 16.2827 4.33301 12.5117 4.33301H9.51172C5.74072 4.33301 3.85472 4.33301 2.68372 5.50501C1.51172 6.67601 1.51172 8.56201 1.51172 12.333C1.51172 16.104 1.51172 17.99 2.68372 19.161C3.85472 20.333 5.74072 20.333 9.51172 20.333H12.5117C16.2827 20.333 18.1687 20.333 19.3397 19.161C20.1487 18.353 20.3997 17.205 20.4767 15.333" stroke="" stroke-width="1.5"/>
<path d="M5.51172 4.33305L9.24672 1.85605C9.77198 1.51438 10.3851 1.33252 11.0117 1.33252C11.6383 1.33252 12.2515 1.51438 12.7767 1.85605L16.5117 4.33305" stroke="" stroke-width="1.5" stroke-linecap="round"/>
<path d="M17.5039 12.333H17.5139" stroke="" stroke-width="2" stroke-linecap="round" stroke-linejoin="round"/>
</svg>
