<svg width="19" height="18" viewBox="0 0 19 18" fill="none" xmlns="http://www.w3.org/2000/svg">
<path d="M4.93982 14.4094C6.1914 15.661 7.83826 16.4399 9.59976 16.6133C11.3613 16.7867 13.1284 16.3439 14.6 15.3604C16.0716 14.3769 17.1566 12.9135 17.6702 11.2196C18.1837 9.52574 18.094 7.70619 17.4163 6.07106C16.7386 4.43593 15.5148 3.08639 13.9536 2.25244C12.3923 1.41848 10.5902 1.15171 8.85434 1.49759C7.11845 1.84347 5.55621 2.78059 4.43384 4.14925C3.31148 5.51792 2.69845 7.23343 2.69922 9.00344V10.7" stroke="#44AC22" stroke-width="1.5" stroke-linecap="round" stroke-linejoin="round"/>
<path d="M1 9.0001L2.7 10.7001L4.4 9.0001M9.5 5.6001V9.8501H13.75" stroke="#44AC22" stroke-width="1.5" stroke-linecap="round" stroke-linejoin="round"/>
</svg>
